<?xml version="1.0" encoding="utf-8"?>
<!-- Generator: Adobe Illustrator 25.0.1, SVG Export Plug-In . SVG Version: 6.00 Build 0)  -->
<svg version="1.1" id="レイヤー_1" xmlns="http://www.w3.org/2000/svg" xmlns:xlink="http://www.w3.org/1999/xlink" x="0px"
	 y="0px" viewBox="0 0 141.732 24.734" style="enable-background:new 0 0 141.732 24.734;" xml:space="preserve">
<g>
	<path d="M3.21,0.003V10.36h11.953V0.003h3.21v24.727h-3.21v-11.6H3.21v11.6H0V0.003H3.21z"/>
	<polygon points="52.427,24.727 44.554,0 41.342,0 41.344,0.007 39.817,0.007 31.944,24.734 35.156,24.734 42.187,2.653 
		49.215,24.727 	"/>
	<polygon points="84.412,24.727 76.539,0 73.327,0 73.329,0.007 71.802,0.007 63.929,24.734 67.141,24.734 74.172,2.653 
		81.2,24.727 	"/>
	<polygon points="93.683,0.007 101.556,24.734 104.768,24.734 104.766,24.727 106.293,24.727 114.166,0 110.954,0 103.923,22.081 
		96.895,0.007 	"/>
	<g>
		<rect x="127.8" y="0.002" width="13.367" height="2.66"/>
		<polygon points="141.732,22.069 131.01,22.069 131.01,13.114 140.597,13.114 140.597,10.493 131.01,10.493 127.8,10.493 
			127.8,13.114 127.8,22.069 127.8,24.729 127.8,24.732 131.01,24.732 131.01,24.729 141.732,24.729 		"/>
	</g>
</g>
</svg>
