<?xml version="1.0" encoding="utf-8"?>
<!-- Generator: Adobe Illustrator 25.1.0, SVG Export Plug-In . SVG Version: 6.00 Build 0)  -->
<svg version="1.1" id="layer1" xmlns="http://www.w3.org/2000/svg" xmlns:xlink="http://www.w3.org/1999/xlink" x="0px"
	 y="0px" viewBox="0 0 347.412 93.622" style="enable-background:new 0 0 347.412 93.622;" xml:space="preserve">
<g>
	<path d="M17.371,87.404V6.217H29.22v70.326h28.196v10.862H17.371z"/>
	<path d="M103.163,88.941c-22.491,0-41.581-19.31-41.581-41.252c0-24.905,19.09-43.007,41.91-43.007
		c24.137,0,42.568,18.98,42.568,41.581C146.06,70.838,127.08,88.941,103.163,88.941z M134.211,47.03
		c0-16.786-12.727-31.487-29.842-31.487c-21.942,0-30.939,18.871-30.939,30.939c0,16.347,11.849,31.598,30.39,31.598
		C123.02,78.079,134.211,61.841,134.211,47.03z"/>
	<path d="M186.541,57.891V47.03h51.345c-0.768,26.989-21.175,41.911-42.788,41.911c-21.942,0-40.703-19.09-40.703-41.033
		c0-26.331,20.187-43.227,40.703-43.227c15.579,0,28.964,7.351,37.193,21.942h-13.823c-6.913-7.899-13.824-11.081-22.821-11.081
		c-15.798,0-29.402,14.921-29.402,30.939c0,17.115,13.495,31.598,29.842,31.598c12.836,0,23.149-7.131,28.305-20.188H186.541z"/>
	<path d="M287.143,88.941c-22.49,0-41.581-19.31-41.581-41.252c0-24.905,19.091-43.007,41.911-43.007
		c24.137,0,42.568,18.98,42.568,41.581C330.041,70.838,311.061,88.941,287.143,88.941z M318.193,47.03
		c0-16.786-12.727-31.487-29.842-31.487c-21.942,0-30.938,18.871-30.938,30.939c0,16.347,11.849,31.598,30.39,31.598
		C307.001,78.079,318.193,61.841,318.193,47.03z"/>
</g>
</svg>
